# AST/ASF file generated using VICON BodyLanguage
# -----------------------------------------------
:version 1.10
:name VICON
:units
  mass 1.0
  length 0.45
  angle deg
:documentation
   .ast/.asf automatically generated from VICON data using
   VICON BodyBuilder and BodyLanguage model FoxedUp or BRILLIANT.MOD
:root
   order TX TY TZ RX RY RZ
   axis XYZ
   position 0 0 0  
   orientation 0 0 0 
:bonedata
  begin
     id 1 
     name lhipjoint
     direction 0.541323 -0.757556 0.364798 
     length 2.47576 
     axis 0 0 0  XYZ
  end
  begin
     id 2 
     name lfemur
     direction 0.34202 -0.939693 0  
     length 7.46493  
     axis 0 0 20  XYZ
    dof rx ry rz
    limits (-160.0 20.0)
           (-70.0 70.0)
           (-60.0 70.0)
  end
  begin
     id 3 
     name ltibia
     direction 0.34202 -0.939693 0   
     length 7.73805   
     axis 0 0 20   XYZ
    dof rx
    limits (-10.0 170.0)
  end
  begin
     id 4 
     name lfoot
     direction 0.107174 -0.294458 0.949636   
     length 2.25864   
     axis -90 7.62852e-016 20   XYZ
    dof rx rz
    limits (-45.0 90.0)
           (-70.0 20.0)
  end
  begin
     id 5 
     name ltoes
     direction 1.53606e-011 -4.21934e-011 1   
     length 1.12451   
     axis -90 7.62852e-016 20   XYZ
    dof rx
    limits (-90.0 20.0)
  end
  begin
     id 6 
     name rhipjoint
     direction -0.524745 -0.766967 0.36933   
     length 2.44538  
     axis 0 0 0  XYZ 
  end
  begin
     id 7 
     name rfemur
     direction -0.34202 -0.939693 0   
     length 7.61604   
     axis 0 0 -20   XYZ
    dof rx ry rz
    limits (-160.0 20.0)
           (-70.0 70.0)
           (-70.0 60.0)
  end
  begin
     id 8 
     name rtibia
     direction -0.34202 -0.939693 0   
     length 7.61056   
     axis 0 0 -20   XYZ
    dof rx
    limits (-10.0 170.0)
 end
 begin
     id 9 
     name rfoot
     direction -0.12616 -0.346623 0.929482   
     length 2.46372  
     axis -90 -7.62852e-016 -20   XYZ
    dof rx rz
    limits (-45.0 90.0)
           (-20.0 70.0)
  end
  begin
     id 10 
     name rtoes
     direction -1.53531e-011 -4.22004e-011 1   
     length 1.21611   
     axis -90 -7.62852e-016 -20   XYZ
    dof rx
    limits (-90.0 20.0)
  end
  begin
     id 11 
     name lowerback
     direction -0.000778023 0.997293 -0.0735223   
     length 2.06139   
     axis 0 0 0   XYZ
    dof rx ry rz
    limits (-20.0 45.0)
           (-30.0 30.0)
           (-30.0 30.0)
  end
  begin
     id 12 
     name upperback
     direction 0.0222598 0.999722 -0.0078355   
     length 2.06383   
     axis 0 0 0   XYZ
    dof rx ry rz
    limits (-20.0 45.0)
           (-30.0 30.0)
           (-30.0 30.0)
  end
  begin
     id 13 
     name thorax
     direction 0.0219654 0.999405 0.0265994   
     length 2.07163   
     axis 0 0 0   XYZ
    dof rx ry rz
    limits (-20.0 45.0)
           (-30.0 30.0)
           (-30.0 30.0)
  end
  begin
     id 14 
     name lowerneck
     direction 0.0213282 0.988147 0.15202   
     length 1.75969   
     axis 0 0 0   XYZ
    dof rx ry rz
    limits (-20.0 45.0)
           (-30.0 30.0)
           (-30.0 30.0)
  end
  begin
     id 15 
     name upperneck
     direction -0.0546456 0.982624 -0.177379   
     length 1.79244   
     axis 0 0 0   XYZ
    dof rx ry rz
    limits (-20.0 45.0)
           (-30.0 30.0)
           (-30.0 30.0)
  end
  begin
     id 16
     name head
     direction -0.0199987 0.996855 -0.076686  
     length 1.80555  
     axis 0 0 0   XYZ
    dof rx ry rz
    limits (-20.0 45.0)
           (-30.0 30.0)
           (-30.0 30.0)
  end
  begin
     id 17 
     name lclavicle
     direction 0.929565 0.363219 -0.063096  
     length 3.55722  
     axis 0 0 0   XYZ
    dof ry rz
    limits (-20.0 10.0)
           (0.0 20.0)
  end
  begin
     id 18 
     name lhumerus
     direction 1 -4.48993e-011 -2.36203e-027   
     length 4.92785   
     axis 180 -30 -90   XYZ
    dof rx ry rz
    limits (-60.0 90.0)
           (-90.0 90.0)
           (-90.0 90.0)
  end
  begin
     id 19
     name lradius
     direction 1 -4.48947e-011 2.02997e-027   
     length 3.44052   
     axis 180 -30 -90   XYZ
    dof rx
    limits (-10.0 170.0)
  end
  begin
     id 20
     name lwrist
     direction 1 -4.48962e-011 1.45991e-027   
     length 1.72026   
     axis 1.49639e-024 90 90   XYZ
    dof ry
    limits (-180.0 0.0)
 end
  begin
     id 21 
     name lhand
     direction 1 -4.48984e-011 2.91906e-027   
     length 0.654326   
     axis -1.863e-015 90 90   XYZ
    dof rx rz
    limits (-90.0 90.0)
           (-45.0 45.0)
  end
  begin
     id 22 
     name lfingers
     direction 1 -4.48961e-011 5.83968e-027   
     length 0.527534   
     axis -3.72598e-015 90 90   XYZ
    dof rx
    limits (0.0 90.0)
  end
  begin
     id 23
     name lthumb
     direction 0.707107 -6.34963e-011 0.707107   
     length 0.757437   
     axis -90 45 -6.68868e-015   XYZ
    dof rx rz
    limits (-45.0 45.0)
           (-45.0 45.0)
  end
  begin
     id 24 
     name rclavicle
     direction -0.902944 0.422599 -0.0781198   
     length 3.54432  
     axis 0 0 0   XYZ 
    dof ry rz
    limits (-10.0 20.0)
           (-20.0 0.0)
  end
  begin
     id 25 
     name rhumerus
     direction -1 -4.48953e-011 -4.75835e-028  
     length 5.09181   
     axis 180 30 90   XYZ
    dof rx ry rz
    limits (-90.0 60.0)
           (-90.0 90.0)
           (-90.0 90.0)
  end
  begin
     id 26 
     name rradius
     direction -1 -4.48986e-011 -3.25889e-027   
     length 3.49865   
     axis 180 30 90   XYZ
    dof rx
    limits (-10.0 170.0)
  end
  begin
     id 27 
     name rwrist
     direction -1 -4.48963e-011 1.45989e-027   
     length 1.74933   
     axis 1.49639e-024 -90 -90   XYZ
    dof ry
    limits (-180.0 0.0)
  end
  begin
     id 28
     name rhand
     direction -1 -4.49003e-011 2.91844e-027   
     length 0.66641   
     axis -1.863e-015 -90 -90   XYZ
    dof rx rz
    limits (-90.0 90.0)
           (-45.0 45.0)
  end
  begin
     id 29
     name rfingers
     direction -1 -4.48973e-011 5.83886e-027   
     length 0.537277   
     axis -3.72598e-015 -90 -90   XYZ
    dof rx
    limits (0.0 90.0)
  end
  begin
     id 30
     name rthumb
     direction -0.707107 -6.34976e-011 0.707107   
     length 0.771425   
     axis -90 -45 6.68868e-015   XYZ
    dof rx rz
    limits (-45.0 45.0)
           (-45.0 45.0)
  end
:hierarchy
  begin
    root lhipjoint rhipjoint lowerback
    lhipjoint lfemur
    lfemur ltibia
    ltibia lfoot
    lfoot ltoes
    rhipjoint rfemur
    rfemur rtibia
    rtibia rfoot
    rfoot rtoes
    lowerback upperback
    upperback thorax
    thorax lowerneck lclavicle rclavicle
    lowerneck upperneck
    upperneck head
    lclavicle lhumerus
    lhumerus lradius
    lradius lwrist
    lwrist lhand lthumb
    lhand lfingers
    rclavicle rhumerus
    rhumerus rradius
    rradius rwrist
    rwrist rhand rthumb
    rhand rfingers
  end

#!OML:ASF H:\LiuWeirdWalks\Patient Classification 1\Patient 1\Session 1\male.ASF
:FULLY-SPECIFIED
:DEGREES
164
root 0.883025 17.8135 -31.409 2.04447 0.806348 0.541344
lowerback 3.76983 -4.22667 -3.97851
upperback -0.888929 -5.71861 5.02035
thorax -2.1249 -2.78698 7.75728
lowerneck -15.772 7.4348 10.2246
upperneck 20.7033 11.591 -15.5458
head 10.8516 4.49417 -5.61286
rclavicle -3.72721e-015 -1.11319e-014
rhumerus -34.1336 -1.29455 -72.7568
rradius 27.9666
rwrist -6.79894
rhand -16.0671 -4.62178
rfingers 7.12502
rthumb 10.1354 -34.3577
lclavicle -3.72721e-015 -1.11319e-014
lhumerus -37.4273 21.7211 80.1945
lradius 35.0775
lwrist 11.1542
lhand -13.3591 0.0456079
lfingers 7.12502
lthumb 12.747 29.6365
rfemur -14.0191 -3.94277 15.7752
rtibia 39.4289
rfoot -15.1747 -18.898
rtoes -6.3812
lfemur -8.43459 3.36812 -25.7689
ltibia 26.1735
lfoot -13.1813 14.8069
ltoes -2.75843
165
root 0.89782 17.8093 -31.4024 1.94234 0.914765 0.64457
lowerback 3.842 -4.15045 -4.06851
upperback -0.863112 -5.62497 4.89387
thorax -2.15784 -2.73813 7.67646
lowerneck -15.7749 7.19995 10.0857
upperneck 20.8046 11.2352 -15.2926
head 10.8056 4.34421 -5.55663
rclavicle 2.17172e-014 -6.36111e-015
rhumerus -34.3608 -1.72922 -72.7374
rradius 27.9768
rwrist -6.80073
rhand -16.1187 -4.72638
rfingers 7.12502
rthumb 10.0856 -34.4647
lclavicle 2.17172e-014 -6.36111e-015
lhumerus -37.235 21.3472 80.1897
lradius 35.1151
lwrist 11.188
lhand -13.371 -0.0332354
lfingers 7.12502
lthumb 12.7356 29.5584
rfemur -14.2972 -4.04646 15.5994
rtibia 40.2172
rfoot -15.03 -18.8894
rtoes -6.62577
lfemur -8.25172 3.32032 -25.9286
ltibia 26.0922
lfoot -13.1735 14.7899
ltoes -2.75108
166
root 0.913155 17.8064 -31.3955 1.85204 0.993083 0.733403
lowerback 3.88835 -4.04511 -4.11474
upperback -0.822591 -5.49021 4.75033
thorax -2.17314 -2.67021 7.54805
lowerneck -15.8265 6.93823 9.93748
upperneck 20.9224 10.8367 -15.0186
head 10.7685 4.17358 -5.49706
rclavicle 6.10766e-014 2.38542e-014
rhumerus -34.5736 -2.30151 -72.6942
rradius 27.9558
rwrist -6.71939
rhand -16.1434 -4.80574
rfingers 7.12502
rthumb 10.0618 -34.5452
lclavicle 6.10766e-014 2.38542e-014
lhumerus -36.9682 20.9213 80.1971
lradius 35.0951
lwrist 11.2309
lhand -13.3735 -0.188124
lfingers 7.12502
lthumb 12.7331 29.4036
rfemur -14.6073 -4.12868 15.4327
rtibia 41.0236
rfoot -14.838 -18.8476
rtoes -6.84522
lfemur -8.07059 3.25661 -26.0807
ltibia 25.9911
lfoot -13.1443 14.8119
ltoes -2.74228
167
root 0.929013 17.8048 -31.3878 1.76868 1.03211 0.802776
lowerback 3.88949 -3.87125 -4.10243
upperback -0.755368 -5.26096 4.55906
thorax -2.15929 -2.55735 7.32716
lowerneck -15.9538 6.58652 9.75576
upperneck 21.0882 10.2934 -14.6477
head 10.7358 3.93997 -5.41866
rclavicle -4.57205e-015 1.90833e-014
rhumerus -34.8127 -3.13894 -72.6239
rradius 27.916
rwrist -6.56874
rhand -16.119 -4.83437
rfingers 7.12502
rthumb 10.0854 -34.5727
lclavicle -4.57205e-015 1.90833e-014
lhumerus -36.5925 20.3135 80.2326
lradius 35.0312
lwrist 11.3063
lhand -13.3695 -0.314497
lfingers 7.12502
lthumb 12.737 29.277
rfemur -14.9441 -4.17585 15.2805
rtibia 41.8444
rfoot -14.598 -18.7747
rtoes -7.03562
lfemur -7.89086 3.21651 -26.2159
ltibia 25.88
lfoot -13.103 14.8442
ltoes -2.75256
168
root 0.945057 17.8044 -31.3802 1.68899 1.04539 0.847894
lowerback 3.90449 -3.89388 -4.07634
upperback -0.70342 -5.2915 4.523
thorax -2.11472 -2.57594 7.27333
lowerneck -15.939 6.59508 9.7479
upperneck 21.0967 10.3198 -14.6857
head 10.7422 3.94767 -5.42793
rclavicle -2.5842e-014 1.90833e-014
rhumerus -34.8132 -3.24997 -72.6156
rradius 27.8266
rwrist -6.44731
rhand -16.0533 -4.81254
rfingers 7.12502
rthumb 10.1487 -34.5478
lclavicle -2.5842e-014 1.90833e-014
lhumerus -36.4439 20.4286 80.1567
lradius 35.045
lwrist 11.3557
lhand -13.3794 -0.380094
lfingers 7.12502
lthumb 12.7274 29.212
rfemur -15.3037 -4.18794 15.1523
rtibia 42.6777
rfoot -14.323 -18.6862
rtoes -7.18321
lfemur -7.71723 3.22356 -26.3236
ltibia 25.7639
lfoot -13.0526 14.8523
ltoes -2.78797
